# xmcd
#
# Track frame offsets: 
#        150
#        12480
#        26835
#        39157
#        51664
#        66115
#        81025
#        94150
#        102892
#        115412
#        129510
#        143045
#        157215
#        171912
#        188490
#
# Disc length: 2697 seconds
#
# Revision: 0
# Processed by: cddbd v1.5.2PL0 Copyright (c) Steve Scherf et al.
# Submitted via: ExactAudioCopy v0.99pb5
#
DISCID=cd0a870f
DTITLE=Eero Magga - Parhaat
DYEAR=1996
DGENRE=Acid Punk
TTITLE0=Poromiehen suudelma
TTITLE1=Lauttaojan Leena
TTITLE2=Puolet sydämestäni
TTITLE3=Pohjoisen kutsu
TTITLE4=Kairan kyynel
TTITLE5=Taivallampi
TTITLE6=Sä kuulut lappiin
TTITLE7=Suopunkityttö
TTITLE8=Muistojen haaveet
TTITLE9=Sompion soutaja
TTITLE10=Vanha kulkuri
TTITLE11=Lauluni mun
TTITLE12=Beaivvaseana
TTITLE13=Kompassisydän
TTITLE14=Lapin kulta
EXTD=
EXTT0=
EXTT1=
EXTT2=
EXTT3=
EXTT4=
EXTT5=
EXTT6=
EXTT7=
EXTT8=
EXTT9=
EXTT10=
EXTT11=
EXTT12=
EXTT13=
EXTT14=
PLAYORDER=
